<!-- Generated by IcoMoon.io -->
<svg version="1.1" xmlns="http://www.w3.org/2000/svg" width="32" height="32" viewBox="0 0 32 32">
<title>graphql</title>
<path d="M16.003 0c-1.575 0-2.851 1.277-2.851 2.851s1.277 2.851 2.851 2.851v0c1.575 0 2.851-1.277 2.851-2.851s-1.277-2.851-2.851-2.851v0zM27.389 6.575c-1.575 0-2.851 1.277-2.851 2.851s1.277 2.851 2.851 2.851v0c1.575 0 2.851-1.277 2.851-2.851s-1.277-2.851-2.851-2.851v0zM27.389 19.724c-1.575 0-2.851 1.277-2.851 2.851s1.277 2.851 2.851 2.851v0c1.575 0 2.851-1.277 2.851-2.851s-1.277-2.851-2.851-2.851v0zM16.003 26.299c-1.574 0-2.851 1.276-2.851 2.851s1.276 2.851 2.851 2.851v0c1.574 0 2.851-1.276 2.851-2.851s-1.276-2.851-2.851-2.851v0zM4.613 19.725c-1.574 0-2.851 1.276-2.851 2.851s1.276 2.851 2.851 2.851v0c1.575 0 2.851-1.277 2.851-2.851s-1.277-2.851-2.851-2.851v0zM4.613 6.575c-1.575 0-2.851 1.277-2.851 2.851s1.277 2.851 2.851 2.851v0c1.575 0 2.851-1.277 2.851-2.851s-1.277-2.851-2.851-2.851v0zM16.003 2.071l-12.065 6.965v13.931l12.065 6.965 12.063-6.965v-13.931zM16.003 4.205l10.213 17.693h-20.429zM14.153 4.7l-8.86 15.349v-10.232zM17.852 4.7l8.861 5.117v10.232zM7.14 23.253h17.724l-8.861 5.115z"></path>
</svg>
