<!-- Generated by IcoMoon.io -->
<svg version="1.1" xmlns="http://www.w3.org/2000/svg" width="33" height="32" viewBox="0 0 33 32">
<title>strapi</title>
<path fill="#8e75ff" d="M31.729 0h-21.366v10.713h10.513c0.375 0 0.678 0.304 0.678 0.678v10.368h10.853v-21.079c0-0.18-0.071-0.353-0.198-0.48s-0.3-0.199-0.48-0.199z"></path>
<path fill="#8e75ff" opacity="0.405" d="M10.362 0v10.713h-10.023c-0.138-0-0.262-0.084-0.314-0.211s-0.022-0.274 0.076-0.371zM22.133 31.901c-0.098 0.096-0.243 0.124-0.369 0.071s-0.208-0.176-0.209-0.313v-9.9h10.853l-10.275 10.141z"></path>
<path fill="#8e75ff" opacity="0.405" d="M10.362 10.713h10.854c0.186 0 0.339 0.151 0.339 0.339v10.708h-10.513c-0.375 0-0.678-0.304-0.678-0.678v-10.368z"></path>
</svg>
